<?xml version="1.0" standalone="no"?><!DOCTYPE svg PUBLIC "-//W3C//DTD SVG 1.1//EN" "http://www.w3.org/Graphics/SVG/1.1/DTD/svg11.dtd"><svg t="1682142288254" class="icon" viewBox="0 0 1024 1024" version="1.1" xmlns="http://www.w3.org/2000/svg" p-id="2093" xmlns:xlink="http://www.w3.org/1999/xlink" width="200" height="200"><path d="M901.630597 926.725072v48.637464a47.543715 47.543715 0 0 1-14.33749 34.299975 48.466214 48.466214 0 0 1-34.312474 14.337489H170.493641c-26.86248 0-48.637464-21.774984-48.637464-48.637464v-48.637464c0.1625 26.79998 21.849984 48.474964 48.637464 48.637464h682.499492c26.86248 0 48.637464-21.774984 48.637464-48.637464z" fill="#C1C7D0" p-id="2094"></path><path d="M121.856177 536.575363v-97.799927L24.06875 536.575363h97.787427z m779.77442 0l1.024999-97.799927 97.274927 97.799927h-98.299926z" fill="#D30000" p-id="2095"></path><path d="M631.768297 21.975746l-7.637494-7.637494 0 0 7.649994 7.637494zM898.218099 293.413044a47.849964 47.849964 0 0 1 3.399998 19.424986h0.0125v6.649995H637.943293c-26.86248 0-48.637464-21.774984-48.637464-48.637464V0.000762H170.493641A47.581215 47.581215 0 0 0 136.193667 14.325752a47.549965 47.549965 0 0 0-14.33749 34.312474v878.086846a48.489964 48.489964 0 0 0 14.33749 34.299975 47.543715 47.543715 0 0 0 34.299974 14.337489h682.499492c26.78748-0.1625 48.462464-21.837484 48.637464-48.637464h0.512499V312.83803c0.0375-6.737495-1.324999-13.33749-3.924997-19.424986z" fill="#EBECF0" p-id="2096"></path><path d="M637.943293 319.488025h263.687304v-6.649995h-0.0125a47.849964 47.849964 0 0 0-3.399998-19.424986 47.768714 47.768714 0 0 0-9.912493-15.387489L631.768297 21.975746l-7.649994-7.637494A49.667463 49.667463 0 0 0 589.305829 0.000762v270.849799c0 26.86248 21.774984 48.637464 48.637464 48.637464z" fill="#C1C7D0" p-id="2097"></path><path d="M323.231027 619.500301c-5.549996-4.474997-14.424989-6.712495-26.62498-6.712495h-24.724982v56.299958h26.84998c21.874984 0 32.812476-9.312493 32.812476-27.924979 0-9.962493-2.774998-17.187487-8.312494-21.662484z m180.887366-5.187496h-32.199976v135.949899h34.024974c22.687483 0 39.69997-5.674996 51.037462-17.012487 11.337492-11.337492 17.012487-28.049979 17.012488-50.124963s-6.024996-38.812471-18.087487-50.812462c-12.049991-11.999991-29.324978-17.999987-51.799961-17.999987z" fill="#FF1D1D" p-id="2098"></path><path d="M24.58125 536.575363v243.199819a48.726214 48.726214 0 0 0 14.337489 34.812474 47.543715 47.543715 0 0 0 34.299974 14.337489h877.574347c26.86248 0 48.637464-21.774984 48.637464-48.637464V536.575363H24.58125z m353.499736 137.249898c-2.212498 3.824997-4.887496 7.324995-7.999994 10.537492-4.749996 4.912496-10.537492 9.112493-17.399987 12.574991-11.337492 5.749996-25.349981 8.624994-42.037468 8.624993h-38.762472v83.774938h-53.71246V576.175333h89.874934c24.612482 0 43.837467 5.674996 57.674957 17.012488 13.83749 11.349992 20.749985 27.33748 20.749984 47.987464 0 12.112491-2.799998 22.987483-8.387494 32.649976z m220.737336 87.362435h-0.0125c-20.199985 18.762486-49.362463 28.149979-87.512435 28.149979h-93.08743V576.175333h89.887433c25.837481 0 47.887464 4.474997 66.14995 13.42499s31.962476 21.462484 41.12497 37.537473c9.149993 16.074988 13.73749 34.437474 13.737489 55.087458 0 33.874975-10.099992 60.199955-30.287477 78.962442z m206.512346-146.874891l-86.212436 0.0125v46.537465h86.212436v38.449972h-86.212436v90.024933h-53.71246V576.175333h139.924896v38.137472z" fill="#FF1D1D" p-id="2099"></path><path d="M352.681005 696.937744c-11.349992 5.749996-25.362481 8.624994-42.037468 8.624993 16.687488 0 30.699977-2.874998 42.037468-8.624993zM370.080992 684.362753c3.112498-3.212498 5.787496-6.712495 7.999994-10.537492-2.212498 3.824997-4.899996 7.324995-7.999994 10.537492zM418.205957 576.175333h0.0125v213.162342h-0.0125z" fill="#FFFFFF" p-id="2100"></path></svg>